#!OML:ASF E:\Style4\Style4.ASF
:FULLY-SPECIFIED
:DEGREES
2123
root 0.0368779 17.1712 -0.904831 4.33076 12.6333 1.65056
lowerback 18.1183 4.40827 0.602142
upperback 10.325 5.90737 -2.03028
thorax 1.26761 3.10144 -3.44191
lowerneck 6.2937 0.602898 -2.34599
upperneck 2.70456 0.659813 1.33572
head -0.221716 0.307021 0.782745
rclavicle 1.02175e-013 -6.1822e-014
rhumerus 14.2672 18.8079 -83.464
rradius 129.001
rwrist 16.7936
rhand 32.0491 -12.326
rfingers 7.12502
rthumb 55.5391 -30.0674
lclavicle 1.02175e-013 -6.1822e-014
lhumerus 23.7167 -18.6599 75.2722
lradius 124.976
lwrist -17.19
lhand 25.9378 43.6187
lfingers 7.12502
lthumb 50.0207 64.8305
rfemur -25.7531 -15.6861 18.0624
rtibia 48.9786
rfoot -25.3085 -20.8687
rtoes -10.118
lfemur -29.0501 -3.19977 -20.5543
ltibia 47.2998
lfoot -21.2297 5.49594
ltoes -15.6768
2124
root 0.0442523 17.1746 -0.902726 4.33997 12.6061 1.7177
lowerback 17.7501 4.51304 0.442893
upperback 10.5125 6.0323 -2.05805
thorax 1.65418 3.1655 -3.35891
lowerneck 6.47081 0.501875 -2.1574
upperneck 2.53016 0.535384 1.23832
head -0.300957 0.247381 0.723674
rclavicle -4.01545e-014 2.18663e-015
rhumerus 15.1289 18.342 -82.9679
rradius 129.364
rwrist 16.598
rhand 31.7239 -12.432
rfingers 7.12502
rthumb 55.2498 -30.3884
lclavicle -4.01545e-014 2.18663e-015
lhumerus 22.9923 -19.663 75.7984
lradius 125.013
lwrist -15.6176
lhand 24.5238 44.2381
lfingers 7.12502
lthumb 48.7236 66.106
rfemur -25.7467 -15.7382 17.9459
rtibia 48.9947
rfoot -25.2518 -20.814
rtoes -10.3434
lfemur -28.9847 -3.17203 -20.6648
ltibia 47.2479
lfoot -21.1985 5.48232
ltoes -15.6258
2125
root 0.0515272 17.1736 -0.901308 4.35246 12.5535 1.84093
lowerback 17.8355 4.40342 0.121126
upperback 10.4084 5.83693 -2.13742
thorax 1.4609 3.05095 -3.2481
lowerneck 6.65867 0.687888 -2.31486
upperneck 2.61942 0.767101 1.17375
head -0.308883 0.361429 0.724883
rclavicle 6.06293e-015 -2.98177e-015
rhumerus 15.8119 18.5458 -82.7805
rradius 129.552
rwrist 16.483
rhand 30.836 -12.4446
rfingers 7.12502
rthumb 54.4569 -30.9689
lclavicle 6.06293e-015 -2.98177e-015
lhumerus 21.5978 -19.9156 76.4119
lradius 125.534
lwrist -14.8078
lhand 24.5621 44.7585
lfingers 7.12502
lthumb 48.7588 66.6093
rfemur -25.7769 -15.7582 17.7674
rtibia 49.0897
rfoot -25.2891 -20.7142
rtoes -10.2201
lfemur -28.9401 -3.13897 -20.8395
ltibia 47.2452
lfoot -21.2265 5.60391
ltoes -16.0828
2126
root 0.0590617 17.1671 -0.901816 4.36027 12.5158 2.02075
lowerback 18.4031 4.22655 -0.0546076
upperback 10.0935 5.55486 -2.38668
thorax 0.823924 2.89915 -3.43351
lowerneck 6.52925 0.896547 -2.54543
upperneck 3.04191 1.02994 1.34439
head -0.164788 0.487972 0.810885
rclavicle 2.75814e-014 1.19271e-014
rhumerus 16.3337 18.8297 -82.8679
rradius 129.636
rwrist 16.4279
rhand 30.5775 -12.4309
rfingers 7.12502
rthumb 54.2254 -31.1154
lclavicle 2.75814e-014 1.19271e-014
lhumerus 20.0019 -19.7327 76.9979
lradius 126.259
lwrist -15.3332
lhand 27.2393 44.3996
lfingers 7.12502
lthumb 51.2087 64.9637
rfemur -25.8375 -15.8021 17.5221
rtibia 49.2423
rfoot -25.2777 -20.6244
rtoes -10.1606
lfemur -28.9392 -3.12442 -21.078
ltibia 47.3266
lfoot -21.3082 5.69129
ltoes -16.3753
2127
root 0.0655869 17.1569 -0.904851 4.36435 12.5271 1.95987
lowerback 18.0507 4.27336 -0.258452
upperback 10.3482 5.60367 -2.20113
thorax 1.2417 2.91547 -3.09012
lowerneck 6.43727 0.88241 -2.8451
upperneck 2.85027 0.993885 1.25202
head -0.209508 0.468754 0.833795
rclavicle 3.53837e-014 -6.16232e-014
rhumerus 17.6826 18.6772 -81.9956
rradius 129.553
rwrist 16.3624
rhand 30.5039 -12.0988
rfingers 7.12502
rthumb 54.1594 -30.8285
lclavicle 3.53837e-014 -6.16232e-014
lhumerus 19.3756 -20.458 77.6581
lradius 126.172
lwrist -14.4065
lhand 25.198 44.5611
lfingers 7.12502
lthumb 49.3429 66.1222
rfemur -25.969 -15.8296 17.5719
rtibia 49.4212
rfoot -25.2641 -20.644
rtoes -10.3135
lfemur -29.0771 -3.04859 -21.0487
ltibia 47.5158
lfoot -21.3829 5.61665
ltoes -16.2093
2128
root 0.0698589 17.1461 -0.909929 4.34605 12.5802 1.66467
lowerback 18.1194 4.25175 0.00694701
upperback 10.2874 5.61131 -2.20304
thorax 1.16717 2.92966 -3.24939
lowerneck 6.55214 0.875068 -2.85807
upperneck 2.82628 0.979973 1.31384
head -0.236306 0.461175 0.855428
rclavicle -6.41578e-014 6.7885e-014
rhumerus 18.5029 18.5343 -81.7426
rradius 129.427
rwrist 16.4251
rhand 29.9937 -11.544
rfingers 7.12502
rthumb 53.7013 -30.582
lclavicle -6.41578e-014 6.7885e-014
lhumerus 18.4611 -21.1006 78.1348
lradius 126.308
lwrist -14.775
lhand 24.9052 44.3116
lfingers 7.12502
lthumb 49.0741 66.0073
rfemur -26.1483 -15.8043 17.9121
rtibia 49.6266
rfoot -25.2413 -20.7954
rtoes -10.6994
lfemur -29.309 -2.91186 -20.7581
ltibia 47.7723
lfoot -21.4396 5.53409
ltoes -16.2323
2129
root 0.0747184 17.1321 -0.912722 4.27665 12.6514 1.48244
lowerback 18.1954 4.24298 0.199148
upperback 10.2787 5.62722 -2.21947
thorax 1.14078 2.94667 -3.38275
lowerneck 6.60588 0.866272 -2.94365
upperneck 2.87421 0.960756 1.44517
head -0.231799 0.449635 0.91133
rclavicle 2.59414e-014 1.09332e-014
rhumerus 19.3209 18.5012 -81.5016
rradius 129.299
rwrist 16.5229
rhand 29.5897 -11.4072
rfingers 7.12502
rthumb 53.3377 -30.6833
lclavicle 2.59414e-014 1.09332e-014
lhumerus 17.6583 -21.4536 78.6416
lradius 126.719
lwrist -15.5626
lhand 26.2723 44.6102
lfingers 7.12502
lthumb 50.3267 65.6597
rfemur -26.2436 -15.8079 18.0986
rtibia 49.8683
rfoot -25.2679 -20.9261
rtoes -11.1034
lfemur -29.4546 -2.78669 -20.5973
ltibia 48.047
lfoot -21.5079 5.31698
ltoes -16.0365
